<mxfile host="app.diagrams.net" modified="2023-12-14T11:29:32.990Z" agent="Mozilla/5.0 (Windows NT 10.0; Win64; x64) AppleWebKit/537.36 (KHTML, like Gecko) Chrome/120.0.0.0 Safari/537.36" etag="GOcMdhZt0m3mYTT-OaK9" version="22.1.8" type="github">
  <diagram name="第 1 页" id="G421AXYj4_v2IXjdonLd">
    <mxGraphModel dx="1562" dy="986" grid="0" gridSize="10" guides="1" tooltips="1" connect="1" arrows="1" fold="1" page="1" pageScale="1" pageWidth="827" pageHeight="1169" math="0" shadow="0">
      <root>
        <mxCell id="0" />
        <mxCell id="1" parent="0" />
        <mxCell id="wcm2jCocmmvp-XVTtY65-8" style="edgeStyle=orthogonalEdgeStyle;rounded=0;orthogonalLoop=1;jettySize=auto;html=1;exitX=0;exitY=0.5;exitDx=0;exitDy=0;entryX=0.5;entryY=0;entryDx=0;entryDy=0;fontSize=15;" edge="1" parent="1" source="wcm2jCocmmvp-XVTtY65-1">
          <mxGeometry relative="1" as="geometry">
            <mxPoint x="238" y="140" as="sourcePoint" />
            <mxPoint x="110" y="360" as="targetPoint" />
          </mxGeometry>
        </mxCell>
        <mxCell id="wcm2jCocmmvp-XVTtY65-27" value="日志存储" style="edgeLabel;html=1;align=center;verticalAlign=middle;resizable=0;points=[];fontSize=15;" vertex="1" connectable="0" parent="wcm2jCocmmvp-XVTtY65-8">
          <mxGeometry x="0.4213" relative="1" as="geometry">
            <mxPoint as="offset" />
          </mxGeometry>
        </mxCell>
        <mxCell id="wcm2jCocmmvp-XVTtY65-28" value="ansible控制" style="edgeLabel;html=1;align=center;verticalAlign=middle;resizable=0;points=[];fontSize=15;" vertex="1" connectable="0" parent="wcm2jCocmmvp-XVTtY65-8">
          <mxGeometry x="0.048" y="-1" relative="1" as="geometry">
            <mxPoint as="offset" />
          </mxGeometry>
        </mxCell>
        <mxCell id="wcm2jCocmmvp-XVTtY65-13" style="edgeStyle=orthogonalEdgeStyle;rounded=0;orthogonalLoop=1;jettySize=auto;html=1;exitX=0.5;exitY=1;exitDx=0;exitDy=0;entryX=0.5;entryY=0;entryDx=0;entryDy=0;fontSize=15;" edge="1" parent="1">
          <mxGeometry relative="1" as="geometry">
            <mxPoint x="302" y="170" as="sourcePoint" />
            <mxPoint x="302" y="360" as="targetPoint" />
          </mxGeometry>
        </mxCell>
        <mxCell id="wcm2jCocmmvp-XVTtY65-30" value="ansible控制" style="edgeLabel;html=1;align=center;verticalAlign=middle;resizable=0;points=[];fontSize=15;" vertex="1" connectable="0" parent="wcm2jCocmmvp-XVTtY65-13">
          <mxGeometry x="-0.3414" y="1" relative="1" as="geometry">
            <mxPoint as="offset" />
          </mxGeometry>
        </mxCell>
        <mxCell id="wcm2jCocmmvp-XVTtY65-19" style="edgeStyle=orthogonalEdgeStyle;rounded=0;orthogonalLoop=1;jettySize=auto;html=1;exitX=1;exitY=0.5;exitDx=0;exitDy=0;entryX=0.5;entryY=0;entryDx=0;entryDy=0;fontSize=15;" edge="1" parent="1" source="wcm2jCocmmvp-XVTtY65-1">
          <mxGeometry relative="1" as="geometry">
            <mxPoint x="421" y="140" as="sourcePoint" />
            <mxPoint x="608" y="360" as="targetPoint" />
          </mxGeometry>
        </mxCell>
        <mxCell id="wcm2jCocmmvp-XVTtY65-33" value="ansible控制" style="edgeLabel;html=1;align=center;verticalAlign=middle;resizable=0;points=[];fontSize=15;" vertex="1" connectable="0" parent="wcm2jCocmmvp-XVTtY65-19">
          <mxGeometry x="0.2922" relative="1" as="geometry">
            <mxPoint as="offset" />
          </mxGeometry>
        </mxCell>
        <mxCell id="wcm2jCocmmvp-XVTtY65-1" value="ansible-rsyslog" style="rounded=0;whiteSpace=wrap;html=1;fontSize=15;" vertex="1" parent="1">
          <mxGeometry x="263" y="110" width="120" height="60" as="geometry" />
        </mxCell>
        <mxCell id="wcm2jCocmmvp-XVTtY65-2" value="Mysql&lt;br&gt;&lt;br&gt;&lt;br&gt;&lt;br&gt;&lt;br&gt;&lt;br&gt;&lt;br&gt;&lt;br&gt;&lt;br&gt;&lt;br&gt;" style="rounded=0;whiteSpace=wrap;html=1;fontSize=15;" vertex="1" parent="1">
          <mxGeometry x="60" y="360" width="150" height="225" as="geometry" />
        </mxCell>
        <mxCell id="wcm2jCocmmvp-XVTtY65-3" value="msyql1" style="rounded=0;whiteSpace=wrap;html=1;fontSize=15;" vertex="1" parent="1">
          <mxGeometry x="75" y="440" width="120" height="60" as="geometry" />
        </mxCell>
        <mxCell id="wcm2jCocmmvp-XVTtY65-5" value="msyql2" style="rounded=0;whiteSpace=wrap;html=1;fontSize=15;" vertex="1" parent="1">
          <mxGeometry x="75" y="510" width="120" height="60" as="geometry" />
        </mxCell>
        <mxCell id="wcm2jCocmmvp-XVTtY65-12" style="edgeStyle=orthogonalEdgeStyle;rounded=0;orthogonalLoop=1;jettySize=auto;html=1;exitX=0;exitY=0.5;exitDx=0;exitDy=0;entryX=1;entryY=0.5;entryDx=0;entryDy=0;fontSize=15;" edge="1" parent="1" source="wcm2jCocmmvp-XVTtY65-9" target="wcm2jCocmmvp-XVTtY65-2">
          <mxGeometry relative="1" as="geometry" />
        </mxCell>
        <mxCell id="wcm2jCocmmvp-XVTtY65-9" value="WEB&lt;br&gt;&lt;br&gt;&lt;br&gt;&lt;br&gt;&lt;br&gt;&lt;br&gt;&lt;br&gt;&lt;br&gt;&lt;br&gt;&lt;br&gt;" style="rounded=0;whiteSpace=wrap;html=1;fontSize=15;" vertex="1" parent="1">
          <mxGeometry x="248" y="360" width="150" height="225" as="geometry" />
        </mxCell>
        <mxCell id="wcm2jCocmmvp-XVTtY65-10" value="web1" style="rounded=0;whiteSpace=wrap;html=1;fontSize=15;" vertex="1" parent="1">
          <mxGeometry x="263" y="440" width="120" height="60" as="geometry" />
        </mxCell>
        <mxCell id="wcm2jCocmmvp-XVTtY65-11" value="web2" style="rounded=0;whiteSpace=wrap;html=1;fontSize=15;" vertex="1" parent="1">
          <mxGeometry x="263" y="510" width="120" height="60" as="geometry" />
        </mxCell>
        <mxCell id="wcm2jCocmmvp-XVTtY65-20" style="edgeStyle=orthogonalEdgeStyle;rounded=0;orthogonalLoop=1;jettySize=auto;html=1;exitX=0.25;exitY=0;exitDx=0;exitDy=0;entryX=1;entryY=0.75;entryDx=0;entryDy=0;fontSize=15;" edge="1" parent="1" source="wcm2jCocmmvp-XVTtY65-14" target="wcm2jCocmmvp-XVTtY65-1">
          <mxGeometry relative="1" as="geometry" />
        </mxCell>
        <mxCell id="wcm2jCocmmvp-XVTtY65-32" value="日志收集" style="edgeLabel;html=1;align=center;verticalAlign=middle;resizable=0;points=[];fontSize=15;" vertex="1" connectable="0" parent="wcm2jCocmmvp-XVTtY65-20">
          <mxGeometry x="-0.5022" y="-2" relative="1" as="geometry">
            <mxPoint as="offset" />
          </mxGeometry>
        </mxCell>
        <mxCell id="wcm2jCocmmvp-XVTtY65-40" style="edgeStyle=orthogonalEdgeStyle;rounded=0;orthogonalLoop=1;jettySize=auto;html=1;exitX=0;exitY=0.75;exitDx=0;exitDy=0;entryX=1;entryY=0.75;entryDx=0;entryDy=0;fontSize=15;" edge="1" parent="1" source="wcm2jCocmmvp-XVTtY65-14" target="wcm2jCocmmvp-XVTtY65-9">
          <mxGeometry relative="1" as="geometry" />
        </mxCell>
        <mxCell id="wcm2jCocmmvp-XVTtY65-41" value="IP解析" style="edgeLabel;html=1;align=center;verticalAlign=middle;resizable=0;points=[];fontSize=15;" vertex="1" connectable="0" parent="wcm2jCocmmvp-XVTtY65-40">
          <mxGeometry x="-0.068" y="2" relative="1" as="geometry">
            <mxPoint as="offset" />
          </mxGeometry>
        </mxCell>
        <mxCell id="wcm2jCocmmvp-XVTtY65-14" value="DNS&lt;br style=&quot;font-size: 15px;&quot;&gt;&lt;br style=&quot;font-size: 15px;&quot;&gt;&lt;br style=&quot;font-size: 15px;&quot;&gt;&lt;br style=&quot;font-size: 15px;&quot;&gt;&lt;br style=&quot;font-size: 15px;&quot;&gt;&lt;br style=&quot;font-size: 15px;&quot;&gt;&lt;br style=&quot;font-size: 15px;&quot;&gt;&lt;br style=&quot;font-size: 15px;&quot;&gt;&lt;br&gt;&lt;br&gt;" style="rounded=0;whiteSpace=wrap;html=1;fontSize=15;" vertex="1" parent="1">
          <mxGeometry x="495" y="360" width="150" height="225" as="geometry" />
        </mxCell>
        <mxCell id="wcm2jCocmmvp-XVTtY65-15" value="DNS1" style="rounded=0;whiteSpace=wrap;html=1;fontSize=15;" vertex="1" parent="1">
          <mxGeometry x="510" y="414" width="120" height="60" as="geometry" />
        </mxCell>
        <mxCell id="wcm2jCocmmvp-XVTtY65-16" value="DNS2" style="rounded=0;whiteSpace=wrap;html=1;fontSize=15;" vertex="1" parent="1">
          <mxGeometry x="510" y="521" width="120" height="60" as="geometry" />
        </mxCell>
        <mxCell id="wcm2jCocmmvp-XVTtY65-17" value="Client" style="rounded=0;whiteSpace=wrap;html=1;fontSize=15;" vertex="1" parent="1">
          <mxGeometry x="680" y="470" width="120" height="60" as="geometry" />
        </mxCell>
        <mxCell id="wcm2jCocmmvp-XVTtY65-21" style="edgeStyle=orthogonalEdgeStyle;rounded=0;orthogonalLoop=1;jettySize=auto;html=1;exitX=0.75;exitY=0;exitDx=0;exitDy=0;entryX=0.817;entryY=1.053;entryDx=0;entryDy=0;entryPerimeter=0;fontSize=15;" edge="1" parent="1" source="wcm2jCocmmvp-XVTtY65-9" target="wcm2jCocmmvp-XVTtY65-1">
          <mxGeometry relative="1" as="geometry" />
        </mxCell>
        <mxCell id="wcm2jCocmmvp-XVTtY65-31" value="日志收集" style="edgeLabel;html=1;align=center;verticalAlign=middle;resizable=0;points=[];fontSize=15;" vertex="1" connectable="0" parent="wcm2jCocmmvp-XVTtY65-21">
          <mxGeometry x="-0.1786" y="-2" relative="1" as="geometry">
            <mxPoint y="-1" as="offset" />
          </mxGeometry>
        </mxCell>
        <mxCell id="wcm2jCocmmvp-XVTtY65-39" value="通过DNS将域名解析到IP" style="html=1;shadow=0;dashed=0;align=center;verticalAlign=middle;shape=mxgraph.arrows2.arrow;dy=0.6;dx=40;flipH=1;notch=0;fontSize=15;" vertex="1" parent="1">
          <mxGeometry x="398" y="474" width="282" height="41" as="geometry" />
        </mxCell>
      </root>
    </mxGraphModel>
  </diagram>
</mxfile>
